<svg id="visual" viewBox="0 0 900 600" width="900" height="600" xmlns="http://www.w3.org/2000/svg" xmlns:xlink="http://www.w3.org/1999/xlink" version="1.1"><rect x="0" y="0" width="900" height="600" fill="#001122"></rect><g transform="translate(464.0367527303017 262.0668377143161)"><path d="M114.8 -123.4C157.1 -101.2 205.6 -73 216.8 -34.5C228 4 201.9 52.7 175.6 104.4C149.4 156 122.9 210.5 80.9 228.3C39 246.2 -18.5 227.4 -77.8 208.2C-137.2 189.1 -198.5 169.5 -227.4 127.4C-256.3 85.4 -252.7 20.7 -225.5 -23.4C-198.2 -67.6 -147.3 -91.3 -105.8 -113.6C-64.3 -135.9 -32.1 -157 2 -159.4C36.2 -161.8 72.4 -145.6 114.8 -123.4" fill="#6600FF"></path></g></svg>