<svg id="visual" viewBox="0 0 900 600" width="900" height="600" xmlns="http://www.w3.org/2000/svg" xmlns:xlink="http://www.w3.org/1999/xlink" version="1.1"><rect x="0" y="0" width="900" height="600" fill="#001220"></rect><path d="M0 446L10.7 446C21.3 446 42.7 446 64.2 437C85.7 428 107.3 410 128.8 403.2C150.3 396.3 171.7 400.7 193 405.2C214.3 409.7 235.7 414.3 257 417.5C278.3 420.7 299.7 422.3 321.2 423.8C342.7 425.3 364.3 426.7 385.8 425.2C407.3 423.7 428.7 419.3 450 415.5C471.3 411.7 492.7 408.3 514.2 412C535.7 415.7 557.3 426.3 578.8 431.3C600.3 436.3 621.7 435.7 643 437.2C664.3 438.7 685.7 442.3 707 437.8C728.3 433.3 749.7 420.7 771.2 423C792.7 425.3 814.3 442.7 835.8 449.5C857.3 456.3 878.7 452.7 889.3 450.8L900 449L900 601L889.3 601C878.7 601 857.3 601 835.8 601C814.3 601 792.7 601 771.2 601C749.7 601 728.3 601 707 601C685.7 601 664.3 601 643 601C621.7 601 600.3 601 578.8 601C557.3 601 535.7 601 514.2 601C492.7 601 471.3 601 450 601C428.7 601 407.3 601 385.8 601C364.3 601 342.7 601 321.2 601C299.7 601 278.3 601 257 601C235.7 601 214.3 601 193 601C171.7 601 150.3 601 128.8 601C107.3 601 85.7 601 64.2 601C42.7 601 21.3 601 10.7 601L0 601Z" fill="#3c107c"></path><path d="M0 437L10.7 438.7C21.3 440.3 42.7 443.7 64.2 443.7C85.7 443.7 107.3 440.3 128.8 443.3C150.3 446.3 171.7 455.7 193 461.5C214.3 467.3 235.7 469.7 257 464C278.3 458.3 299.7 444.7 321.2 445.8C342.7 447 364.3 463 385.8 467C407.3 471 428.7 463 450 460C471.3 457 492.7 459 514.2 457C535.7 455 557.3 449 578.8 453.3C600.3 457.7 621.7 472.3 643 469.2C664.3 466 685.7 445 707 435.5C728.3 426 749.7 428 771.2 432.3C792.7 436.7 814.3 443.3 835.8 445.2C857.3 447 878.7 444 889.3 442.5L900 441L900 601L889.3 601C878.7 601 857.3 601 835.8 601C814.3 601 792.7 601 771.2 601C749.7 601 728.3 601 707 601C685.7 601 664.3 601 643 601C621.7 601 600.3 601 578.8 601C557.3 601 535.7 601 514.2 601C492.7 601 471.3 601 450 601C428.7 601 407.3 601 385.8 601C364.3 601 342.7 601 321.2 601C299.7 601 278.3 601 257 601C235.7 601 214.3 601 193 601C171.7 601 150.3 601 128.8 601C107.3 601 85.7 601 64.2 601C42.7 601 21.3 601 10.7 601L0 601Z" fill="#6b047a"></path><path d="M0 466L10.7 473.8C21.3 481.7 42.7 497.3 64.2 505.7C85.7 514 107.3 515 128.8 507.5C150.3 500 171.7 484 193 481C214.3 478 235.7 488 257 490.3C278.3 492.7 299.7 487.3 321.2 482C342.7 476.7 364.3 471.3 385.8 476.7C407.3 482 428.7 498 450 500.7C471.3 503.3 492.7 492.7 514.2 486.3C535.7 480 557.3 478 578.8 477.3C600.3 476.7 621.7 477.3 643 482C664.3 486.7 685.7 495.3 707 494.2C728.3 493 749.7 482 771.2 479.5C792.7 477 814.3 483 835.8 481.2C857.3 479.3 878.7 469.7 889.3 464.8L900 460L900 601L889.3 601C878.7 601 857.3 601 835.8 601C814.3 601 792.7 601 771.2 601C749.7 601 728.3 601 707 601C685.7 601 664.3 601 643 601C621.7 601 600.3 601 578.8 601C557.3 601 535.7 601 514.2 601C492.7 601 471.3 601 450 601C428.7 601 407.3 601 385.8 601C364.3 601 342.7 601 321.2 601C299.7 601 278.3 601 257 601C235.7 601 214.3 601 193 601C171.7 601 150.3 601 128.8 601C107.3 601 85.7 601 64.2 601C42.7 601 21.3 601 10.7 601L0 601Z" fill="#8f0076"></path><path d="M0 513L10.7 517.2C21.3 521.3 42.7 529.7 64.2 527.3C85.7 525 107.3 512 128.8 513.8C150.3 515.7 171.7 532.3 193 534.3C214.3 536.3 235.7 523.7 257 523.2C278.3 522.7 299.7 534.3 321.2 532.3C342.7 530.3 364.3 514.7 385.8 513.7C407.3 512.7 428.7 526.3 450 532.8C471.3 539.3 492.7 538.7 514.2 539.2C535.7 539.7 557.3 541.3 578.8 537.7C600.3 534 621.7 525 643 526.5C664.3 528 685.7 540 707 541C728.3 542 749.7 532 771.2 527.7C792.7 523.3 814.3 524.7 835.8 528.8C857.3 533 878.7 540 889.3 543.5L900 547L900 601L889.3 601C878.7 601 857.3 601 835.8 601C814.3 601 792.7 601 771.2 601C749.7 601 728.3 601 707 601C685.7 601 664.3 601 643 601C621.7 601 600.3 601 578.8 601C557.3 601 535.7 601 514.2 601C492.7 601 471.3 601 450 601C428.7 601 407.3 601 385.8 601C364.3 601 342.7 601 321.2 601C299.7 601 278.3 601 257 601C235.7 601 214.3 601 193 601C171.7 601 150.3 601 128.8 601C107.3 601 85.7 601 64.2 601C42.7 601 21.3 601 10.7 601L0 601Z" fill="#ad0b70"></path><path d="M0 564L10.7 566.7C21.3 569.3 42.7 574.7 64.2 573.5C85.7 572.3 107.3 564.7 128.8 561.5C150.3 558.3 171.7 559.7 193 561.8C214.3 564 235.7 567 257 567.8C278.3 568.7 299.7 567.3 321.2 564.3C342.7 561.3 364.3 556.7 385.8 552.7C407.3 548.7 428.7 545.3 450 548.3C471.3 551.3 492.7 560.7 514.2 564.5C535.7 568.3 557.3 566.7 578.8 566.5C600.3 566.3 621.7 567.7 643 567C664.3 566.3 685.7 563.7 707 558.7C728.3 553.7 749.7 546.3 771.2 546.8C792.7 547.3 814.3 555.7 835.8 556C857.3 556.3 878.7 548.7 889.3 544.8L900 541L900 601L889.3 601C878.7 601 857.3 601 835.8 601C814.3 601 792.7 601 771.2 601C749.7 601 728.3 601 707 601C685.7 601 664.3 601 643 601C621.7 601 600.3 601 578.8 601C557.3 601 535.7 601 514.2 601C492.7 601 471.3 601 450 601C428.7 601 407.3 601 385.8 601C364.3 601 342.7 601 321.2 601C299.7 601 278.3 601 257 601C235.7 601 214.3 601 193 601C171.7 601 150.3 601 128.8 601C107.3 601 85.7 601 64.2 601C42.7 601 21.3 601 10.7 601L0 601Z" fill="#c62368"></path></svg>